{"title":"The Hungover Games 2014 1080p BlurRay x264 AC3-HDT (SilverTorren","uid":9759733,"size":3283761814,"categoryP":"video","categoryS":"hd___movies","magnet":"?xt=urn:btih:1a9fff585ebe214e07c967305a54fa0f42ed41ac&amp;dn=The+Hungover+Games+2014+1080p+BlurRay+x264+AC3-HDT+%28SilverTorren&amp;tr=udp%3A%2F%2Ftracker.openbittorrent.com%3A80&amp;tr=udp%3A%2F%2Fopen.demonii.com%3A1337&amp;tr=udp%3A%2F%2Ftracker.coppersurfer.tk%3A6969&amp;tr=udp%3A%2F%2Fexodus.desync.com%3A6969","seeders":1,"leechers":0,"uploader":"AliBaloch","files":2,"time":1394794708,"description":"SilverTorrent - Clean And Verified Torrents Download\n\n------------------------------------------------------\n\nThe Hungover Games 2014 1080p BlurRay x264 AC3-HDT\n\n\n &lt;a href=&quot;\nhttp://www.imdb.com/title/tt3138104/&quot; rel=&quot;nofollow&quot; target=&quot;_NEW&quot;&gt;\nhttp://www.imdb.com/title/tt3138104/&lt;/a&gt;\n\nComplete name                            : The Hungover Games 2014 1080p BlurRay x264 AC3-HDTThe.Hungover.Games.2014.1080p.BlurRay.x264.AC3-HDT.mkv\nFormat                                   : Matroska\nFormat version                           : Version 2\nFile size                                : 3.06 GiB\nDuration                                 : 1h 25mn\nOverall bit rate                         : 5 139 Kbps\nEncoded date                             : UTC 2014-03-13 04:11:24\nWriting application                      : mkvmerge v6.5.0 ('Isn't she lovely') built on Oct 20 2013 12:50:05\nWriting library                          : libebml v1.3.0 + libmatroska v1.4.1\n\nVideo\nID                                       : 1\nFormat                                   : AVC\nFormat/Info                              : Advanced Video Codec\nFormat profile                           : &lt;a class=&quot;__cf_email__&quot; href=&quot;/cdn-cgi/l/email-protection&quot; data-cfemail=&quot;d29abbb5ba929ee6fce3&quot;&gt;[email&amp;#160;protected]&lt;/a&gt;&lt;script cf-hash='f9e31' type=&quot;text/javascript&quot;&gt;\n/* &lt;![CDATA[ */!function(){try{var t=&quot;currentScript&quot;in document?document.currentScript:function(){for(var t=document.getElementsByTagName(&quot;script&quot;),e=t.length;e--;)if(t[e].getAttribute(&quot;cf-hash&quot;))return t[e]}();if(t&amp;&amp;t.previousSibling){var e,r,n,i,c=t.previousSibling,a=c.getAttribute(&quot;data-cfemail&quot;);if(a){for(e=&quot;&quot;,r=parseInt(a.substr(0,2),16),n=2;a.length-n;n+=2)i=parseInt(a.substr(n,2),16)^r,e+=String.fromCharCode(i);e=document.createTextNode(e),c.parentNode.replaceChild(e,c)}}}catch(u){}}();/* ]]&gt; */&lt;/script&gt;\nFormat settings, CABAC                   : Yes\nFormat settings, ReFrames                : 4 frames\nCodec ID                                 : V_MPEG4/ISO/AVC\nDuration                                 : 1h 25mn\nBit rate                                 : 4 500 Kbps\nWidth                                    : 1 920 pixels\nHeight                                   : 1 080 pixels\nDisplay aspect ratio                     : 16:9\nFrame rate mode                          : Constant\nFrame rate                               : 23.976 fps\nColor space                              : YUV\nChroma subsampling                       : 4:2:0\nBit depth                                : 8 bits\nScan type                                : Progressive\nBits/(Pixel*Frame)                       : 0.091\nStream size                              : 2.62 GiB (86%)\nTitle                                    : HDT\nWriting library                          : x264 core 138 r2358 9e941d1\nDefault                                  : Yes\nForced                                   : No\n\nAudio\nID                                       : 2\nFormat                                   : AC-3\nFormat/Info                              : Audio Coding 3\nMode extension                           : CM (complete main)\nFormat settings, Endianness              : Big\nCodec ID                                 : A_AC3\nDuration                                 : 1h 25mn\nBit rate mode                            : Constant\nBit rate                                 : 640 Kbps\nChannel count                            : 6 channels\nChannel positions                        : Front: L C R, Side: L R, LFE\nSampling rate                            : 48.0 KHz\nBit depth                                : 16 bits\nCompression mode                         : Lossy\nStream size                              : 390 MiB (12%)\nTitle                                    : HDT\nLanguage                                 : English\nDefault                                  : Yes\nForced                                   : No\n &lt;a href=&quot;\nhttp://s23.postimg.org/7zi5ijouj/The_Hungover_Games_2014_1080p_Blur_Ray_x264_AC3_H.jpg&quot; rel=&quot;nofollow&quot; target=&quot;_NEW&quot;&gt;\nhttp://s23.postimg.org/7zi5ijouj/The_Hungover_Games_2014_1080p_Blur_Ray_x264_AC3_H.jpg&lt;/a&gt; &lt;a href=&quot;\nhttp://s23.postimg.org/kgot5pk0b/The_Hungover_Games_2014_1080p_Blur_Ray_x264_AC3_H.jpg&quot; rel=&quot;nofollow&quot; target=&quot;_NEW&quot;&gt;\nhttp://s23.postimg.org/kgot5pk0b/The_Hungover_Games_2014_1080p_Blur_Ray_x264_AC3_H.jpg&lt;/a&gt; &lt;a href=&quot;\nhttp://s23.postimg.org/90ie7o5u3/The_Hungover_Games_2014_1080p_Blur_Ray_x264_AC3_H.jpg&quot; rel=&quot;nofollow&quot; target=&quot;_NEW&quot;&gt;\nhttp://s23.postimg.org/90ie7o5u3/The_Hungover_Games_2014_1080p_Blur_Ray_x264_AC3_H.jpg&lt;/a&gt; &lt;a href=&quot;\nhttp://s23.postimg.org/yi0sr9nkb/The_Hungover_Games_2014_1080p_Blur_Ray_x264_AC3_H.jpg&quot; rel=&quot;nofollow&quot; target=&quot;_NEW&quot;&gt;\nhttp://s23.postimg.org/yi0sr9nkb/The_Hungover_Games_2014_1080p_Blur_Ray_x264_AC3_H.jpg&lt;/a&gt; &lt;a href=&quot;\nhttp://s23.postimg.org/5pu17sfwr/The_Hungover_Games_2014_1080p_Blur_Ray_x264_AC3_H.jpg&quot; rel=&quot;nofollow&quot; target=&quot;_NEW&quot;&gt;\nhttp://s23.postimg.org/5pu17sfwr/The_Hungover_Games_2014_1080p_Blur_Ray_x264_AC3_H.jpg&lt;/a&gt; &lt;a href=&quot;\nhttp://s23.postimg.org/yti94140b/The_Hungover_Games_2014_1080p_Blur_Ray_x264_AC3_H.jpg&quot; rel=&quot;nofollow&quot; target=&quot;_NEW&quot;&gt;\nhttp://s23.postimg.org/yti94140b/The_Hungover_Games_2014_1080p_Blur_Ray_x264_AC3_H.jpg&lt;/a&gt; &lt;a href=&quot;\nhttp://s23.postimg.org/wz5emagzv/The_Hungover_Games_2014_1080p_Blur_Ray_x264_AC3_H.jpg&quot; rel=&quot;nofollow&quot; target=&quot;_NEW&quot;&gt;\nhttp://s23.postimg.org/wz5emagzv/The_Hungover_Games_2014_1080p_Blur_Ray_x264_AC3_H.jpg&lt;/a&gt;\n\n------------------------------------------------------\nSilverTorrent - Clean And Verified Torrents Download\n\n","torrent":{"xt":"urn:btih:1a9fff585ebe214e07c967305a54fa0f42ed41ac","amp;dn":"The+Hungover+Games+2014+1080p+BlurRay+x264+AC3-HDT+%28SilverTorren","amp;tr":["udp%3A%2F%2Ftracker.openbittorrent.com%3A80","udp%3A%2F%2Fopen.demonii.com%3A1337","udp%3A%2F%2Ftracker.coppersurfer.tk%3A6969","udp%3A%2F%2Fexodus.desync.com%3A6969"],"infoHash":"1a9fff585ebe214e07c967305a54fa0f42ed41ac","infoHashBuffer":{"type":"Buffer","data":[26,159,255,88,94,190,33,78,7,201,103,48,90,84,250,15,66,237,65,172]},"announce":[],"urlList":[]}}